<?xml version="1.0" encoding="UTF-8"?>
<svg xmlns="http://www.w3.org/2000/svg" width="102.884" height="81.624" viewBox="0 0 102.884 81.624"><g id="Groupe_31" data-name="Groupe 31" transform="translate(-288.595 -202.822)"><g id="Groupe_27" data-name="Groupe 27" transform="translate(288.595 202.822)"><g id="Groupe_23" data-name="Groupe 23" transform="translate(31.212)"><circle id="Ellipse_4" data-name="Ellipse 4" cx="19.956" cy="19.956" r="19.956" transform="translate(0 28.222) rotate(-45)" fill="#009ee0" opacity="0.302"/><path id="Tracé_44" data-name="Tracé 44" d="M477.343,276.738a20.746,20.746,0,1,1,8.588-1.874A20.776,20.776,0,0,1,477.343,276.738Zm-.041-39.921a19.214,19.214,0,1,0,6.706,1.219A19.107,19.107,0,0,0,477.3,236.817Z" transform="translate(-449.09 -227.769)" fill="#009ee0"/></g><g id="Groupe_26" data-name="Groupe 26" transform="translate(0 1.81)"><g id="Groupe_25" data-name="Groupe 25"><g id="Groupe_24" data-name="Groupe 24"><path id="Tracé_45" data-name="Tracé 45" d="M292.035,223.281l31.685-8.713a9.368,9.368,0,0,1,5.94.105l15.267,5.9s-6.465.694-11.453,8.64l-9.112-1.677-7.2,6.117,19.067,2.088a4.836,4.836,0,0,1,4.148,5.373h0a5.667,5.667,0,0,1-5.39,5.344l-25.126.03-7.036-1.666" transform="translate(-291.243 -213.341)" fill="#fff"/><path id="Tracé_46" data-name="Tracé 46" d="M301.211,241.618a.8.8,0,0,1-.183-.021l-7.035-1.666a.792.792,0,1,1,.365-1.541l6.945,1.645L332.336,243a4.877,4.877,0,0,0,4.6-4.61,4.04,4.04,0,0,0-3.444-4.527l-19.067-2.088a.792.792,0,0,1-.426-1.391l7.2-6.117a.794.794,0,0,1,.656-.175l8.589,1.581a19.581,19.581,0,0,1,9.3-7.895l-13.017-5.03a8.531,8.531,0,0,0-5.423-.087L289.6,221.385a.792.792,0,0,1-.42-1.527l31.685-8.713a10.093,10.093,0,0,1,6.419.124l15.284,5.9a.792.792,0,0,1-.2,1.526c-.059.007-6.166.784-10.866,8.273a.793.793,0,0,1-.814.358l-8.742-1.609-5.513,4.683,17.238,1.887a5.6,5.6,0,0,1,4.851,6.219,6.485,6.485,0,0,1-6.179,6.077l-31.126-2.97Z" transform="translate(-288.595 -210.681)" fill="#009ee0"/></g></g></g></g><g id="Groupe_30" data-name="Groupe 30" transform="translate(318.603 248.012)"><g id="Groupe_28" data-name="Groupe 28" transform="translate(0 0)"><path id="Tracé_47" data-name="Tracé 47" d="M493.647,422.317,483.28,411.95a10.489,10.489,0,0,0-7.417-3.072h-7.886a8.456,8.456,0,0,0-5.98,2.477h0a7.211,7.211,0,0,1-5.1,2.112h-8.485a4.262,4.262,0,0,0-3.88,2.5l-.24-.021L429.509,403.57a4.357,4.357,0,0,0-5.877.261h0a4.357,4.357,0,0,0,0,6.162l21.877,21.877a6.555,6.555,0,0,0,4.636,1.92h22.534a3.934,3.934,0,0,1,2.781,1.152l2.453,2.454" transform="translate(-421.564 -401.753)" fill="#fff"/><path id="Tracé_48" data-name="Tracé 48" d="M475.266,435.508a.79.79,0,0,1-.56-.232l-2.453-2.454a3.12,3.12,0,0,0-2.221-.92H447.5a7.3,7.3,0,0,1-5.2-2.152l-21.878-21.878a5.149,5.149,0,0,1,6.945-7.589L441.6,412.19A5.069,5.069,0,0,1,445.765,410h8.485a6.378,6.378,0,0,0,4.539-1.88,9.189,9.189,0,0,1,6.54-2.709h7.886a11.208,11.208,0,0,1,7.977,3.3l10.367,10.367a.792.792,0,1,1-1.12,1.12l-10.367-10.367a9.634,9.634,0,0,0-6.857-2.84H465.33a7.615,7.615,0,0,0-5.42,2.245,7.949,7.949,0,0,1-5.659,2.344h-8.485a3.48,3.48,0,0,0-3.159,2.033.788.788,0,0,1-.791.46l-.24-.021a.789.789,0,0,1-.438-.181L426.353,401.5a3.565,3.565,0,0,0-4.809,5.255l21.877,21.877a5.726,5.726,0,0,0,4.076,1.688h22.534a4.694,4.694,0,0,1,3.341,1.384l2.453,2.454a.792.792,0,0,1-.56,1.352Z" transform="translate(-418.916 -399.073)" fill="#009ee0"/></g><g id="Groupe_29" data-name="Groupe 29" transform="translate(21.796 13.656)"><path id="Tracé_49" data-name="Tracé 49" d="M536.654,465.753H518.625a5.055,5.055,0,0,1-4.719-6.863.792.792,0,1,1,1.479.568,3.472,3.472,0,0,0,3.24,4.712h18.028a.792.792,0,1,1,0,1.584Z" transform="translate(-513.572 -458.38)" fill="#008cd0"/></g></g></g></svg>